<?xml version="1.0" standalone="no"?>
<!DOCTYPE svg PUBLIC "-//W3C//DTD SVG 20010904//EN"
 "http://www.w3.org/TR/2001/REC-SVG-20010904/DTD/svg10.dtd">
<svg version="1.0" xmlns="http://www.w3.org/2000/svg"
 width="512.000000pt" height="512.000000pt" viewBox="0 0 512.000000 512.000000"
 preserveAspectRatio="xMidYMid meet">
<metadata>
Created by potrace 1.16, written by Peter Selinger 2001-2019
</metadata>
<g transform="translate(0.000000,512.000000) scale(0.100000,-0.100000)"
fill="#000000" stroke="none">
<path d="M197 5106 c-84 -31 -152 -99 -183 -183 -7 -21 -13 -69 -13 -108 -1
-137 -66 -64 1087 -1217 l1037 -1038 -1041 -1042 c-1174 -1176 -1090 -1081
-1082 -1233 5 -91 27 -143 83 -200 57 -56 109 -78 200 -83 152 -8 57 -92 1233
1082 l1042 1041 1043 -1041 c1175 -1174 1080 -1090 1232 -1082 91 5 143 27
200 83 56 57 78 109 83 200 8 152 92 57 -1082 1233 l-1041 1042 1041 1043
c1174 1175 1090 1080 1082 1232 -5 91 -27 143 -83 200 -57 56 -109 78 -200 83
-152 8 -57 92 -1233 -1082 l-1042 -1041 -1038 1037 c-1153 1153 -1080 1088
-1217 1087 -38 0 -87 -6 -108 -13z"/>
</g>
</svg>
